<?xml version="1.0" encoding="UTF-8"?>
<!DOCTYPE svg PUBLIC "-//W3C//DTD SVG 1.1//EN" "http://www.w3.org/Graphics/SVG/1.1/DTD/svg11.dtd">
<svg xmlns="http://www.w3.org/2000/svg" version="1.1" width="505px" height="125px" style="shape-rendering:geometricPrecision; text-rendering:geometricPrecision; image-rendering:optimizeQuality; fill-rule:evenodd; clip-rule:evenodd" xmlns:xlink="http://www.w3.org/1999/xlink">
<g><path style="opacity:0.989" fill="#af1e1e" d="M 16.5,-0.5 C 36.1667,-0.5 55.8333,-0.5 75.5,-0.5C 80.8863,41.2044 86.553,82.871 92.5,124.5C 61.5,124.5 30.5,124.5 -0.5,124.5C -0.5,121.833 -0.5,119.167 -0.5,116.5C 5.4286,77.6686 11.0953,38.6686 16.5,-0.5 Z"/></g>
<g><path style="opacity:0.955" fill="#cb3b3b" d="M 77.5,-0.5 C 89.5,-0.5 101.5,-0.5 113.5,-0.5C 107.317,41.1142 101.317,82.7809 95.5,124.5C 95.1667,124.5 94.8333,124.5 94.5,124.5C 88.553,82.871 82.8863,41.2044 77.5,-0.5 Z"/></g>
<g><path style="opacity:1" fill="#fcfcfc" d="M 164.5,30.5 C 168.5,30.5 172.5,30.5 176.5,30.5C 173.687,51.8598 170.687,73.1932 167.5,94.5C 163.5,94.5 159.5,94.5 155.5,94.5C 155.719,93.325 155.386,92.325 154.5,91.5C 143.137,98.003 133.304,96.3364 125,86.5C 118.029,68.7415 123.196,55.9082 140.5,48C 148.129,46.2685 154.962,47.7685 161,52.5C 162.678,45.2513 163.845,37.918 164.5,30.5 Z M 143.5,58.5 C 157.335,58.1651 161.835,64.4984 157,77.5C 151.416,84.7032 144.749,86.0365 137,81.5C 132.215,71.7026 134.382,64.0359 143.5,58.5 Z"/></g>
<g><path style="opacity:0.914" fill="#af1e1e" d="M 437.5,46.5 C 445.013,45.9263 451.013,48.5929 455.5,54.5C 453.5,57.1667 451.167,59.5 448.5,61.5C 444.14,56.1905 439.306,55.5239 434,59.5C 433.289,61.3668 433.789,62.8668 435.5,64C 440.446,65.8061 445.112,68.1394 449.5,71C 454.533,78.5683 453.533,85.5683 446.5,92C 434.419,98.0416 424.086,96.0416 415.5,86C 418,83.5 420.5,81 423,78.5C 428.225,85.715 434.225,86.715 441,81.5C 441.507,80.0039 441.007,78.8373 439.5,78C 434.436,75.873 429.602,73.373 425,70.5C 420.158,63.663 420.658,57.163 426.5,51C 429.979,48.7911 433.646,47.2911 437.5,46.5 Z"/></g>
<g><path style="opacity:1" fill="#fcfcfc" d="M 196.5,47.5 C 217.32,45.6513 225.987,54.9847 222.5,75.5C 211.167,75.5 199.833,75.5 188.5,75.5C 188.163,79.9943 190.163,82.8276 194.5,84C 201.415,85.1462 207.915,83.9795 214,80.5C 220.836,86.309 220.003,90.4756 211.5,93C 203.157,96.2686 194.823,96.2686 186.5,93C 179.492,88.6532 176.159,82.3199 176.5,74C 177.282,60.5574 183.949,51.7241 196.5,47.5 Z M 198.5,57.5 C 206.291,55.8737 210.624,58.8737 211.5,66.5C 204.159,66.6663 196.826,66.4997 189.5,66C 191.74,62.2574 194.74,59.424 198.5,57.5 Z"/></g>
<g><path style="opacity:0.911" fill="#af1e1e" d="M 288.5,47.5 C 297.91,45.8906 306.077,48.2239 313,54.5C 313.97,56.2738 314.804,58.1072 315.5,60C 312.863,62.3236 309.863,64.157 306.5,65.5C 302.915,59.2119 297.582,57.0452 290.5,59C 281.624,63.2893 278.791,70.1226 282,79.5C 284.92,83.3617 288.753,84.8617 293.5,84C 297.794,82.8546 301.461,80.6879 304.5,77.5C 307.563,79.0252 310.23,81.0252 312.5,83.5C 307.151,91.2614 299.651,95.2614 290,95.5C 276.4,95.0666 269.233,88.0666 268.5,74.5C 269.11,60.9047 275.777,51.9047 288.5,47.5 Z"/></g>
<g><path style="opacity:0.917" fill="#af1e1e" d="M 335.5,47.5 C 343.461,46.0461 350.294,48.0461 356,53.5C 356.494,51.8659 356.66,50.1992 356.5,48.5C 360.555,48.1758 364.555,48.5091 368.5,49.5C 365.843,64.4426 363.51,79.4426 361.5,94.5C 357.833,94.5 354.167,94.5 350.5,94.5C 350.657,93.1266 350.49,91.7932 350,90.5C 339.031,97.8337 329.031,96.8337 320,87.5C 312.529,69.0598 317.695,55.7265 335.5,47.5 Z M 338.5,58.5 C 347.728,56.6001 352.728,60.2668 353.5,69.5C 351.431,81.0967 344.765,85.5967 333.5,83C 325.873,73.0271 327.54,64.8605 338.5,58.5 Z"/></g>
<g><path style="opacity:0.913" fill="#af1e1e" d="M 504.5,62.5 C 504.5,65.1667 504.5,67.8333 504.5,70.5C 503.549,71.9187 503.216,73.5853 503.5,75.5C 491.829,75.3335 480.162,75.5001 468.5,76C 469.297,79.604 471.297,82.2707 474.5,84C 481.775,85.3256 488.608,84.1589 495,80.5C 501.836,86.309 501.003,90.4756 492.5,93C 483.339,96.5618 474.339,96.2285 465.5,92C 458.185,85.3823 455.685,77.2156 458,67.5C 463.082,51.6996 473.915,45.1996 490.5,48C 498.126,50.1236 502.793,54.957 504.5,62.5 Z M 479.5,57.5 C 487.291,55.8737 491.624,58.8737 492.5,66.5C 485.159,66.6663 477.826,66.4997 470.5,66C 472.74,62.2574 475.74,59.424 479.5,57.5 Z"/></g>
<g><path style="opacity:1" fill="#fbfbfb" d="M 225.5,48.5 C 229.833,48.5 234.167,48.5 238.5,48.5C 240.505,58.1866 242.671,67.8533 245,77.5C 250,68.1667 255,58.8333 260,49.5C 264.413,48.3676 268.913,48.2009 273.5,49C 264.634,63.7036 255.967,78.5369 247.5,93.5C 244.232,94.487 240.898,94.8204 237.5,94.5C 233.294,79.2167 229.294,63.8834 225.5,48.5 Z"/></g>
<g><path style="opacity:0.916" fill="#af1e1e" d="M 375.5,48.5 C 379.5,48.5 383.5,48.5 387.5,48.5C 386.261,57.8368 384.928,67.1701 383.5,76.5C 385.069,83.9517 389.403,86.1183 396.5,83C 398.617,81.2691 400.117,79.1024 401,76.5C 402.61,67.1722 404.11,57.8388 405.5,48.5C 409.5,48.5 413.5,48.5 417.5,48.5C 416.048,57.8275 414.548,67.1609 413,76.5C 410.154,88.6801 402.487,95.0134 390,95.5C 378.264,95.4285 372.097,89.5952 371.5,78C 372.975,68.1767 374.308,58.3434 375.5,48.5 Z"/></g>
<g><path style="opacity:0.547" fill="#a9aaa9" d="M 405.5,108.5 C 404.167,108.5 402.833,108.5 401.5,108.5C 401.817,111.572 401.484,114.572 400.5,117.5C 399.796,114.296 399.13,111.129 398.5,108C 399.058,104.432 401.058,102.765 404.5,103C 404.957,103.414 405.291,103.914 405.5,104.5C 404.092,105.243 402.759,106.077 401.5,107C 403.058,107.21 404.391,107.71 405.5,108.5 Z"/></g>
<g><path style="opacity:0.536" fill="#a9aaa9" d="M 362.5,103.5 C 364.436,107.715 365.103,112.381 364.5,117.5C 361.813,117.664 359.146,117.497 356.5,117C 352.69,110.185 354.524,107.018 362,107.5C 362.49,106.207 362.657,104.873 362.5,103.5 Z M 359.5,108.5 C 362.077,109.69 362.91,111.69 362,114.5C 359.218,116.011 357.385,115.178 356.5,112C 357.071,110.401 358.071,109.234 359.5,108.5 Z"/></g>
<g><path style="opacity:0.337" fill="#a9aaa9" d="M 367.5,103.5 C 369.048,103.821 369.715,104.821 369.5,106.5C 366.752,106.598 366.086,105.598 367.5,103.5 Z"/></g>
<g><path style="opacity:0.458" fill="#a9aaa9" d="M 342.5,110.5 C 340.516,110.617 338.85,109.95 337.5,108.5C 334.582,110.008 333.916,112.175 335.5,115C 337.701,115.825 339.534,115.325 341,113.5C 342.824,114.749 342.657,115.915 340.5,117C 333.005,118.164 330.672,115.164 333.5,108C 337.565,105.596 340.565,106.429 342.5,110.5 Z"/></g>
<g><path style="opacity:0.488" fill="#a9aaa9" d="M 342.5,110.5 C 345.527,105.776 349.027,105.442 353,109.5C 354.5,116 352,118.5 345.5,117C 343.549,115.266 342.549,113.099 342.5,110.5 Z M 347.5,108.5 C 352.311,110.253 352.644,112.586 348.5,115.5C 346.261,115.426 345.261,114.259 345.5,112C 345.862,110.566 346.528,109.399 347.5,108.5 Z"/></g>
<g><path style="opacity:0.506" fill="#a9aaa9" d="M 374.5,106.5 C 376.582,106.472 378.416,107.139 380,108.5C 380.821,111.554 380.655,114.554 379.5,117.5C 377.167,105.5 374.833,105.5 372.5,117.5C 371.513,114.232 371.18,110.898 371.5,107.5C 372.791,107.737 373.791,107.404 374.5,106.5 Z"/></g>
<g><path style="opacity:0.492" fill="#a9aaa9" d="M 385.5,106.5 C 387.806,106.993 390.139,107.326 392.5,107.5C 392.665,111.182 392.499,114.848 392,118.5C 389.162,122.035 385.995,122.368 382.5,119.5C 384.939,119.581 387.272,119.081 389.5,118C 385.111,118.276 382.445,116.276 381.5,112C 382.007,109.455 383.341,107.621 385.5,106.5 Z M 386.5,108.5 C 391.318,110.734 391.485,113.067 387,115.5C 382.678,113.377 382.512,111.043 386.5,108.5 Z"/></g>
<g><path style="opacity:0.498" fill="#a9aaa9" d="M 405.5,108.5 C 412.984,104.831 416.15,107.164 415,115.5C 407.637,119.327 404.471,116.993 405.5,108.5 Z M 409.5,108.5 C 413.264,109.385 414.264,111.552 412.5,115C 407.148,115.175 406.148,113.009 409.5,108.5 Z"/></g>
<g><path style="opacity:0.506" fill="#a9aaa9" d="M 419.5,106.5 C 424.137,106.608 424.47,107.608 420.5,109.5C 419.833,112.167 419.167,114.833 418.5,117.5C 417.035,113.549 417.368,109.882 419.5,106.5 Z"/></g>
<g><path style="opacity:0.522" fill="#a9aaa9" d="M 431.5,106.5 C 433.5,106.833 435.5,107.167 437.5,107.5C 437.5,110.833 437.5,114.167 437.5,117.5C 430.07,119.559 426.903,116.893 428,109.5C 429.145,108.364 430.312,107.364 431.5,106.5 Z M 432.5,108.5 C 435.077,109.69 435.91,111.69 435,114.5C 432.218,116.011 430.385,115.178 429.5,112C 430.071,110.401 431.071,109.234 432.5,108.5 Z"/></g>
<g><path style="opacity:0.459" fill="#a9aaa9" d="M 454.5,110.5 C 452.516,110.617 450.85,109.95 449.5,108.5C 446.582,110.008 445.916,112.175 447.5,115C 449.701,115.825 451.534,115.325 453,113.5C 454.824,114.749 454.657,115.915 452.5,117C 445.005,118.164 442.672,115.164 445.5,108C 449.565,105.596 452.565,106.429 454.5,110.5 Z"/></g>
<g><path style="opacity:0.487" fill="#a9aaa9" d="M 454.5,110.5 C 457.226,106.485 460.892,105.485 465.5,107.5C 465.82,110.898 465.487,114.232 464.5,117.5C 462.328,117.324 459.995,117.157 457.5,117C 455.549,115.266 454.549,113.099 454.5,110.5 Z M 459.5,108.5 C 464.571,110.534 464.738,112.868 460,115.5C 458.115,115.138 457.281,113.971 457.5,112C 457.862,110.566 458.528,109.399 459.5,108.5 Z"/></g>
<g><path style="opacity:0.472" fill="#a9aaa9" d="M 479.5,106.5 C 481.484,106.383 483.15,107.05 484.5,108.5C 478.482,108.715 478.315,110.048 484,112.5C 484.934,117.083 483.1,118.583 478.5,117C 478.043,116.586 477.709,116.086 477.5,115.5C 479.117,115.331 480.784,114.997 482.5,114.5C 481.086,113.376 479.586,112.376 478,111.5C 477.387,109.505 477.887,107.838 479.5,106.5 Z"/></g>
<g><path style="opacity:0.479" fill="#a9aaa9" d="M 488.5,106.5 C 493.5,106.167 495.833,108.5 495.5,113.5C 493.143,113.337 490.81,113.503 488.5,114C 490.333,115.788 492.333,115.954 494.5,114.5C 495.711,115.274 495.711,116.107 494.5,117C 489.308,118.872 486.308,117.205 485.5,112C 485.863,109.808 486.863,107.974 488.5,106.5 Z M 489.5,108.5 C 491.196,108.685 492.529,109.519 493.5,111C 491.5,111.667 489.5,111.667 487.5,111C 488.381,110.292 489.047,109.458 489.5,108.5 Z"/></g>
<g><path style="opacity:0.531" fill="#a9aaa9" d="M 367.5,107.5 C 368.777,108.694 369.444,110.36 369.5,112.5C 369.167,114.167 368.833,115.833 368.5,117.5C 367.513,114.232 367.18,110.898 367.5,107.5 Z"/></g>
<g><path style="opacity:0.468" fill="#a9aaa9" d="M 467.5,107.5 C 469.197,109.305 470.03,111.639 470,114.5C 471.011,115.337 472.178,115.67 473.5,115.5C 473.5,112.833 473.5,110.167 473.5,107.5C 474.5,107.5 475.5,107.5 476.5,107.5C 476.649,110.607 476.149,113.607 475,116.5C 472.667,117.833 470.333,117.833 468,116.5C 467.502,113.518 467.335,110.518 467.5,107.5 Z"/></g>
</svg>
