<?xml version="1.0" encoding="UTF-8"?>
<!DOCTYPE svg PUBLIC "-//W3C//DTD SVG 1.1//EN" "http://www.w3.org/Graphics/SVG/1.1/DTD/svg11.dtd">
<svg xmlns="http://www.w3.org/2000/svg" version="1.1" width="922px" height="200px" style="shape-rendering:geometricPrecision; text-rendering:geometricPrecision; image-rendering:optimizeQuality; fill-rule:evenodd; clip-rule:evenodd" xmlns:xlink="http://www.w3.org/1999/xlink">
<g><path style="opacity:0.917" fill="#1487ff" d="M 50.5,-0.5 C 55.8333,-0.5 61.1667,-0.5 66.5,-0.5C 66.6661,5.17645 66.4994,10.8431 66,16.5C 61.6597,16.9826 57.493,18.1492 53.5,20C 51.1064,21.9522 49.6064,24.4522 49,27.5C 48.6667,46.5 48.3333,65.5 48,84.5C 46.3579,90.4475 43.1913,95.4475 38.5,99.5C 43.1913,103.552 46.3579,108.552 48,114.5C 48.0362,134.231 48.7028,153.898 50,173.5C 53.7125,179.652 59.2125,182.319 66.5,181.5C 66.5,187.5 66.5,193.5 66.5,199.5C 61.1667,199.5 55.8333,199.5 50.5,199.5C 38.2518,195.753 30.0851,187.753 26,175.5C 25.9511,155.782 25.2844,136.115 24,116.5C 22.5,114.333 20.6667,112.5 18.5,111C 12.8973,110.178 7.56398,108.511 2.5,106C 1.60064,104.348 0.60064,102.848 -0.5,101.5C -0.5,100.167 -0.5,98.8333 -0.5,97.5C 0.60064,96.1516 1.60064,94.6516 2.5,93C 7.56398,90.4886 12.8973,88.822 18.5,88C 22.5206,86.1321 24.6872,82.9654 25,78.5C 25.3333,60.1667 25.6667,41.8333 26,23.5C 30.0593,11.2738 38.2259,3.27377 50.5,-0.5 Z"/></g>
<g><path style="opacity:0.933" fill="#fefffe" d="M 89.5,-0.5 C 92.8333,-0.5 96.1667,-0.5 99.5,-0.5C 120.53,3.51122 139.863,11.6779 157.5,24C 176.232,38.6137 187.399,57.7803 191,81.5C 196.655,134.721 174.822,171.221 125.5,191C 113.87,195.359 101.87,197.859 89.5,198.5C 89.5,190.5 89.5,182.5 89.5,174.5C 119.396,171.165 140.896,156.165 154,129.5C 159.571,109.926 159.905,90.259 155,70.5C 148.374,52.8738 136.541,40.0404 119.5,32C 109.845,27.9197 99.8446,25.0864 89.5,23.5C 89.5,15.5 89.5,7.5 89.5,-0.5 Z"/></g>
<g><path style="opacity:0.885" fill="#1487ff" d="M 921.5,20.5 C 921.5,68.5 921.5,116.5 921.5,164.5C 918.603,168.264 915.77,168.264 913,164.5C 912.333,116.5 912.333,68.5 913,20.5C 915.882,17.8752 918.715,17.8752 921.5,20.5 Z"/></g>
<g><path style="opacity:0.949" fill="#fefffe" d="M 444.5,36.5 C 449.849,35.4614 454.349,36.7947 458,40.5C 459.429,47.7194 459.929,55.0528 459.5,62.5C 466.508,62.3337 473.508,62.5004 480.5,63C 484.815,67.1212 485.649,71.9546 483,77.5C 482.097,78.7014 480.931,79.5348 479.5,80C 472.842,80.4996 466.175,80.6663 459.5,80.5C 459.333,101.503 459.5,122.503 460,143.5C 460.785,145.286 461.951,146.786 463.5,148C 468.515,148.219 473.515,148.219 478.5,148C 484.824,156.012 483.157,162.012 473.5,166C 465.309,167.102 457.309,166.435 449.5,164C 445.48,160.989 442.647,157.156 441,152.5C 439.55,128.544 439.05,104.544 439.5,80.5C 434.489,80.6659 429.489,80.4993 424.5,80C 420.765,78.2003 419.098,75.2003 419.5,71C 419.039,67.4552 420.372,64.7885 423.5,63C 428.823,62.5006 434.156,62.334 439.5,62.5C 439.334,55.825 439.5,49.1583 440,42.5C 441.332,40.34 442.832,38.34 444.5,36.5 Z"/></g>
<g><path style="opacity:0.943" fill="#fefffe" d="M 243.5,61.5 C 278.225,59.0023 298.225,74.8356 303.5,109C 302.414,114.416 299.081,117.416 293.5,118C 270.169,118.5 246.836,118.667 223.5,118.5C 228.751,142.812 243.751,152.645 268.5,148C 274.297,146.271 279.297,143.271 283.5,139C 294.117,135.616 298.617,139.449 297,150.5C 283.254,164.97 266.42,170.47 246.5,167C 216.423,159.705 202.256,140.539 204,109.5C 206.585,84.6025 219.752,68.6025 243.5,61.5 Z M 248.5,79.5 C 263.282,77.9714 274.116,83.6381 281,96.5C 281.494,98.1341 281.66,99.8008 281.5,101.5C 262.5,101.5 243.5,101.5 224.5,101.5C 227.73,88.9358 235.73,81.6025 248.5,79.5 Z"/></g>
<g><path style="opacity:0.943" fill="#fefffe" d="M 538.5,61.5 C 573.225,59.0023 593.225,74.8356 598.5,109C 597.414,114.416 594.081,117.416 588.5,118C 565.169,118.5 541.836,118.667 518.5,118.5C 523.751,142.812 538.751,152.645 563.5,148C 569.297,146.271 574.297,143.271 578.5,139C 589.117,135.616 593.617,139.449 592,150.5C 578.254,164.97 561.42,170.47 541.5,167C 511.423,159.705 497.256,140.539 499,109.5C 501.585,84.6025 514.752,68.6025 538.5,61.5 Z M 543.5,79.5 C 558.282,77.9714 569.116,83.6381 576,96.5C 576.494,98.1341 576.66,99.8008 576.5,101.5C 557.5,101.5 538.5,101.5 519.5,101.5C 522.73,88.9358 530.73,81.6025 543.5,79.5 Z"/></g>
<g><path style="opacity:0.941" fill="#fefffe" d="M 661.5,61.5 C 667.621,61.0899 673.621,61.5899 679.5,63C 685.677,67.9743 686.011,73.3077 680.5,79C 678.801,79.9581 676.967,80.4581 675,80.5C 656.051,75.3141 644.051,82.3141 639,101.5C 638.667,120.833 638.333,140.167 638,159.5C 635.076,166.097 630.242,168.264 623.5,166C 621.333,165.167 619.833,163.667 619,161.5C 618.333,130.167 618.333,98.8333 619,67.5C 619.833,65.3333 621.333,63.8333 623.5,63C 630.999,60.6642 635.832,63.1642 638,70.5C 638.333,73.8333 638.667,77.1667 639,80.5C 644.244,71.4168 651.744,65.0835 661.5,61.5 Z"/></g>
<g><path style="opacity:0.936" fill="#fefffe" d="M 319.5,62.5 C 323.457,62.0084 327.123,62.6751 330.5,64.5C 339.833,76.1667 349.167,87.8333 358.5,99.5C 368.276,87.4635 377.943,75.2969 387.5,63C 400.446,61.3894 404.279,66.556 399,78.5C 388.929,90.0685 379.429,102.068 370.5,114.5C 380.144,126.645 389.978,138.645 400,150.5C 404.483,162.365 400.316,167.531 387.5,166C 377.284,154.623 367.284,143.123 357.5,131.5C 348.62,142.758 339.62,153.925 330.5,165C 324.846,168.139 319.679,167.306 315,162.5C 314.183,159.036 314.517,155.702 316,152.5C 326.022,140.645 335.856,128.645 345.5,116.5C 335,102.833 324.5,89.1667 314,75.5C 312.571,69.7001 314.404,65.3668 319.5,62.5 Z"/></g>
<g><path style="opacity:0.874" fill="#1487ff" d="M 722.5,63.5 C 739.306,60.5679 753.473,65.2345 765,77.5C 766.261,83.0798 764.094,84.9132 758.5,83C 744.399,69.8698 729.066,68.2031 712.5,78C 704.009,91.5252 707.343,101.192 722.5,107C 732.167,110 741.833,113 751.5,116C 766.064,122.651 771.23,133.818 767,149.5C 762.614,159.283 755.114,165.116 744.5,167C 725.385,170.627 709.219,165.46 696,151.5C 691.543,145.025 693.043,141.859 700.5,142C 715.133,160.26 732.799,163.927 753.5,153C 763.29,140.51 760.957,130.844 746.5,124C 733.24,120.914 720.573,116.247 708.5,110C 695.548,97.3642 695.215,84.3642 707.5,71C 712.045,67.3939 717.045,64.8939 722.5,63.5 Z"/></g>
<g><path style="opacity:0.879" fill="#1487ff" d="M 825.5,63.5 C 854.87,59.917 874.37,71.917 884,99.5C 889.848,123.28 883.681,143.114 865.5,159C 853.299,167.018 839.966,169.685 825.5,167C 805.231,161.731 792.731,148.898 788,128.5C 783.143,104.049 790.643,84.549 810.5,70C 815.367,67.2259 820.367,65.0593 825.5,63.5 Z M 830.5,71.5 C 854.71,70.8917 869.877,82.2251 876,105.5C 879.418,124.928 873.585,140.761 858.5,153C 836.8,164.26 818.3,160.427 803,141.5C 793,124.167 793,106.833 803,89.5C 809.842,79.8363 819.009,73.8363 830.5,71.5 Z"/></g>
</svg>
