<?xml version="1.0" encoding="UTF-8"?>
<!DOCTYPE svg PUBLIC "-//W3C//DTD SVG 1.1//EN" "http://www.w3.org/Graphics/SVG/1.1/DTD/svg11.dtd">
<svg xmlns="http://www.w3.org/2000/svg" version="1.1" width="1246px" height="305px" style="shape-rendering:geometricPrecision; text-rendering:geometricPrecision; image-rendering:optimizeQuality; fill-rule:evenodd; clip-rule:evenodd" xmlns:xlink="http://www.w3.org/1999/xlink">
<g><path style="opacity:0.94" fill="#fefffe" d="M 153.5,-0.5 C 154.833,-0.5 156.167,-0.5 157.5,-0.5C 161.721,2.24593 164.221,6.24593 165,11.5C 169.185,31.2921 170.519,51.2921 169,71.5C 168.422,85.2814 166.922,98.948 164.5,112.5C 180.86,109.16 197.193,105.66 213.5,102C 221.586,101.239 229.586,101.739 237.5,103.5C 237.739,105.467 237.406,107.301 236.5,109C 213.224,112.722 190.224,117.722 167.5,124C 164.333,125.833 161.833,128.333 160,131.5C 142.188,189.433 123.688,247.1 104.5,304.5C 99.8333,304.5 95.1667,304.5 90.5,304.5C 106.261,246.731 122.094,189.064 138,131.5C 123.014,136.908 108.181,142.742 93.5,149C 90.3223,153.011 87.989,157.511 86.5,162.5C 87,162.833 87.5,163.167 88,163.5C 100.415,159.862 112.915,156.529 125.5,153.5C 128.299,154.811 129.632,157.145 129.5,160.5C 115.079,166.876 100.746,173.542 86.5,180.5C 85.5018,189.475 85.1685,198.475 85.5,207.5C 80.6486,208.216 76.4819,206.883 73,203.5C 72.2542,199.104 71.2542,194.77 70,190.5C 69.0975,189.299 67.9308,188.465 66.5,188C 56.3397,190.399 46.0064,192.232 35.5,193.5C 34.6365,191.105 34.6365,188.771 35.5,186.5C 46.9213,180.372 58.4213,174.372 70,168.5C 70.8283,163.798 70.6616,159.131 69.5,154.5C 48.004,166.414 26.6706,178.58 5.5,191C 3.65472,192.128 1.65472,192.628 -0.5,192.5C -0.5,191.167 -0.5,189.833 -0.5,188.5C 16.8469,165.699 39.5136,150.532 67.5,143C 70.1024,142.117 72.2691,140.617 74,138.5C 80.6667,121.833 87.3333,105.167 94,88.5C 96.8895,86.3655 100.056,84.6989 103.5,83.5C 105.201,86.4368 106.201,89.6034 106.5,93C 103.165,106.672 98.8315,120.005 93.5,133C 108.075,129.769 122.408,125.435 136.5,120C 140.145,116.547 142.645,112.38 144,107.5C 152.674,77.0748 156.008,46.0748 154,14.5C 153.301,10.035 152.134,5.70165 150.5,1.5C 151.602,0.824341 152.602,0.157674 153.5,-0.5 Z"/></g>
<g><path style="opacity:0.888" fill="#fefffe" d="M 303.5,133.5 C 309.92,133.402 315.92,134.902 321.5,138C 324.985,141.469 326.985,145.636 327.5,150.5C 324.102,150.82 320.768,150.487 317.5,149.5C 312.937,141.703 306.604,139.869 298.5,144C 294.221,149.033 294.554,153.7 299.5,158C 306.102,160.534 312.769,162.867 319.5,165C 331.012,174.127 331.346,183.794 320.5,194C 308.23,199.939 297.397,198.105 288,188.5C 286.451,185.688 285.618,182.688 285.5,179.5C 288.833,179.5 292.167,179.5 295.5,179.5C 296.743,186.072 300.743,189.406 307.5,189.5C 313.985,189.429 317.985,186.262 319.5,180C 319.042,177.169 317.708,174.836 315.5,173C 308.955,170.362 302.288,168.029 295.5,166C 288.606,163.602 285.606,158.769 286.5,151.5C 287.36,140.973 293.027,134.973 303.5,133.5 Z"/></g>
<g><path style="opacity:0.887" fill="#fefffe" d="M 693.5,133.5 C 702.969,132.655 710.469,135.989 716,143.5C 716.977,145.74 717.477,148.073 717.5,150.5C 714.167,150.5 710.833,150.5 707.5,150.5C 705.953,144.804 702.119,141.804 696,141.5C 687.717,142.109 684.384,146.442 686,154.5C 687.167,155.667 688.333,156.833 689.5,158C 695.363,160.399 701.363,162.399 707.5,164C 718.087,169.425 720.92,177.592 716,188.5C 707.448,197.748 697.281,199.915 685.5,195C 679.112,191.783 675.779,186.616 675.5,179.5C 678.833,179.5 682.167,179.5 685.5,179.5C 686.743,186.072 690.743,189.406 697.5,189.5C 704.008,189.491 708.008,186.325 709.5,180C 709.097,177.113 707.764,174.779 705.5,173C 697.434,170.2 689.434,167.2 681.5,164C 676.755,158.731 675.255,152.564 677,145.5C 680.196,138.167 685.696,134.167 693.5,133.5 Z"/></g>
<g><path style="opacity:0.891" fill="#fefffe" d="M 881.5,133.5 C 892.151,132.309 899.985,136.309 905,145.5C 905.494,147.134 905.66,148.801 905.5,150.5C 902.482,150.665 899.482,150.498 896.5,150C 891.733,141.356 885.066,139.523 876.5,144.5C 872.298,149.328 872.632,153.828 877.5,158C 883.392,160.307 889.392,162.307 895.5,164C 905.646,168.415 908.813,175.915 905,186.5C 899.378,195.553 891.211,199.053 880.5,197C 870.406,195.41 865.073,189.577 864.5,179.5C 867.572,179.183 870.572,179.516 873.5,180.5C 877.212,189.134 883.545,191.634 892.5,188C 899.167,182.667 899.167,177.333 892.5,172C 885.44,169.819 878.44,167.486 871.5,165C 865.198,160.435 863.031,154.268 865,146.5C 865.7,142.934 867.533,140.1 870.5,138C 874.053,135.879 877.72,134.379 881.5,133.5 Z"/></g>
<g><path style="opacity:0.905" fill="#fefffe" d="M 381.5,134.5 C 384.5,134.5 387.5,134.5 390.5,134.5C 390.5,143.5 390.5,152.5 390.5,161.5C 400.5,161.5 410.5,161.5 420.5,161.5C 420.5,152.5 420.5,143.5 420.5,134.5C 423.5,134.5 426.5,134.5 429.5,134.5C 429.5,155.167 429.5,175.833 429.5,196.5C 426.5,196.5 423.5,196.5 420.5,196.5C 420.5,187.5 420.5,178.5 420.5,169.5C 410.5,169.5 400.5,169.5 390.5,169.5C 390.5,178.5 390.5,187.5 390.5,196.5C 387.5,196.5 384.5,196.5 381.5,196.5C 381.5,175.833 381.5,155.167 381.5,134.5 Z"/></g>
<g><path style="opacity:0.905" fill="#fefffe" d="M 485.5,134.5 C 496.5,134.5 507.5,134.5 518.5,134.5C 518.5,137.167 518.5,139.833 518.5,142.5C 510.5,142.5 502.5,142.5 494.5,142.5C 494.5,148.833 494.5,155.167 494.5,161.5C 501.833,161.5 509.167,161.5 516.5,161.5C 516.5,164.167 516.5,166.833 516.5,169.5C 509.167,169.5 501.833,169.5 494.5,169.5C 494.5,176.167 494.5,182.833 494.5,189.5C 502.5,189.5 510.5,189.5 518.5,189.5C 518.5,191.833 518.5,194.167 518.5,196.5C 507.5,196.5 496.5,196.5 485.5,196.5C 485.5,175.833 485.5,155.167 485.5,134.5 Z"/></g>
<g><path style="opacity:0.893" fill="#fefffe" d="M 572.5,134.5 C 581.173,134.334 589.84,134.5 598.5,135C 615.783,137.786 624.783,147.952 625.5,165.5C 625.807,176.719 621.473,185.552 612.5,192C 608.768,194.133 604.768,195.466 600.5,196C 591.173,196.5 581.839,196.666 572.5,196.5C 572.5,175.833 572.5,155.167 572.5,134.5 Z M 581.5,142.5 C 608.444,138.937 619.277,150.27 614,176.5C 611.341,182.492 606.841,186.325 600.5,188C 594.222,189.188 587.888,189.688 581.5,189.5C 581.5,173.833 581.5,158.167 581.5,142.5 Z"/></g>
<g><path style="opacity:0.883" fill="#fefffe" d="M 766.5,134.5 C 770.106,134.211 773.606,134.544 777,135.5C 781.939,145.045 786.606,154.711 791,164.5C 795.833,154.833 800.667,145.167 805.5,135.5C 808.833,134.167 812.167,134.167 815.5,135.5C 808.745,148.01 802.245,160.677 796,173.5C 795.5,181.159 795.334,188.826 795.5,196.5C 792.5,196.5 789.5,196.5 786.5,196.5C 786.666,188.493 786.5,180.493 786,172.5C 779.219,159.936 772.719,147.27 766.5,134.5 Z"/></g>
<g><path style="opacity:0.888" fill="#fefffe" d="M 956.5,134.5 C 970.5,134.5 984.5,134.5 998.5,134.5C 998.5,137.167 998.5,139.833 998.5,142.5C 992.833,142.5 987.167,142.5 981.5,142.5C 981.5,160.5 981.5,178.5 981.5,196.5C 978.5,196.5 975.5,196.5 972.5,196.5C 972.5,178.5 972.5,160.5 972.5,142.5C 967.167,142.5 961.833,142.5 956.5,142.5C 956.5,139.833 956.5,137.167 956.5,134.5 Z"/></g>
<g><path style="opacity:0.882" fill="#fefffe" d="M 1050.5,134.5 C 1061.83,134.5 1073.17,134.5 1084.5,134.5C 1084.5,137.167 1084.5,139.833 1084.5,142.5C 1076.17,142.5 1067.83,142.5 1059.5,142.5C 1059.5,148.833 1059.5,155.167 1059.5,161.5C 1066.83,161.5 1074.17,161.5 1081.5,161.5C 1081.5,164.167 1081.5,166.833 1081.5,169.5C 1074.17,169.5 1066.83,169.5 1059.5,169.5C 1059.5,176.167 1059.5,182.833 1059.5,189.5C 1067.83,189.5 1076.17,189.5 1084.5,189.5C 1084.5,191.833 1084.5,194.167 1084.5,196.5C 1073.17,196.5 1061.83,196.5 1050.5,196.5C 1050.5,175.833 1050.5,155.167 1050.5,134.5 Z"/></g>
<g><path style="opacity:0.896" fill="#fefffe" d="M 203.5,135.5 C 207.226,135.177 210.893,135.511 214.5,136.5C 221.906,156.385 228.906,176.385 235.5,196.5C 232.482,196.665 229.482,196.498 226.5,196C 225.029,191.919 223.362,187.919 221.5,184C 212.84,183.5 204.173,183.334 195.5,183.5C 194.376,187.539 193.043,191.539 191.5,195.5C 188.216,196.657 184.882,196.824 181.5,196C 188.934,175.865 196.267,155.698 203.5,135.5 Z M 208.5,147.5 C 212.405,156.543 215.738,165.876 218.5,175.5C 211.825,175.666 205.158,175.5 198.5,175C 202.131,165.941 205.464,156.775 208.5,147.5 Z"/></g>
<g><path style="opacity:0.906" fill="#fefffe" d="M 1137.5,135.5 C 1141.11,135.211 1144.61,135.544 1148,136.5C 1154.91,151.984 1162.08,167.318 1169.5,182.5C 1177.32,167.186 1184.32,151.519 1190.5,135.5C 1193.83,135.5 1197.17,135.5 1200.5,135.5C 1200.5,155.833 1200.5,176.167 1200.5,196.5C 1197.5,196.5 1194.5,196.5 1191.5,196.5C 1191.67,182.829 1191.5,169.163 1191,155.5C 1184.67,168.998 1178.84,182.665 1173.5,196.5C 1170.75,196.813 1168.09,196.48 1165.5,195.5C 1159.43,181.458 1153.26,167.458 1147,153.5C 1146.5,167.829 1146.33,182.163 1146.5,196.5C 1143.5,196.5 1140.5,196.5 1137.5,196.5C 1137.5,176.167 1137.5,155.833 1137.5,135.5 Z"/></g>
<g><path style="opacity:0.743" fill="#fefffe" d="M 435.5,224.5 C 441.555,223.942 442.888,226.109 439.5,231C 434.795,231.106 433.462,228.939 435.5,224.5 Z"/></g>
<g><path style="opacity:0.764" fill="#fefffe" d="M 596.5,224.5 C 601.651,224.654 602.984,226.82 600.5,231C 595.57,231.427 594.237,229.26 596.5,224.5 Z"/></g>
<g><path style="opacity:0.729" fill="#fefffe" d="M 655.5,224.5 C 660.895,223.555 662.561,225.555 660.5,230.5C 655.321,231.647 653.654,229.647 655.5,224.5 Z"/></g>
<g><path style="opacity:0.871" fill="#fefffe" d="M 955.5,224.5 C 957.833,224.5 960.167,224.5 962.5,224.5C 962.759,227.48 961.426,229.313 958.5,230C 957.707,231.085 957.04,232.252 956.5,233.5C 958.396,234.466 960.396,234.799 962.5,234.5C 962.5,236.167 962.5,237.833 962.5,239.5C 960.5,239.5 958.5,239.5 956.5,239.5C 956.5,247.5 956.5,255.5 956.5,263.5C 954.833,263.5 953.167,263.5 951.5,263.5C 951.5,255.5 951.5,247.5 951.5,239.5C 950.167,239.5 948.833,239.5 947.5,239.5C 947.5,237.833 947.5,236.167 947.5,234.5C 948.833,234.5 950.167,234.5 951.5,234.5C 950.749,230.18 952.083,226.847 955.5,224.5 Z"/></g>
<g><path style="opacity:0.76" fill="#fefffe" d="M 1162.5,224.5 C 1167.24,224.161 1168.57,226.161 1166.5,230.5C 1163.26,232.191 1161.26,231.191 1160.5,227.5C 1161.19,226.482 1161.86,225.482 1162.5,224.5 Z"/></g>
<g><path style="opacity:0.777" fill="#fefffe" d="M 739.5,225.5 C 741.5,225.5 743.5,225.5 745.5,225.5C 745.5,238.167 745.5,250.833 745.5,263.5C 743.5,263.5 741.5,263.5 739.5,263.5C 739.5,250.833 739.5,238.167 739.5,225.5 Z"/></g>
<g><path style="opacity:0.842" fill="#fefffe" d="M 154.5,227.5 C 161.167,227.5 167.833,227.5 174.5,227.5C 174.5,229.167 174.5,230.833 174.5,232.5C 169.5,232.5 164.5,232.5 159.5,232.5C 159.5,235.833 159.5,239.167 159.5,242.5C 163.833,242.5 168.167,242.5 172.5,242.5C 172.5,244.167 172.5,245.833 172.5,247.5C 168.167,247.5 163.833,247.5 159.5,247.5C 159.5,251.167 159.5,254.833 159.5,258.5C 164.5,258.5 169.5,258.5 174.5,258.5C 174.5,260.167 174.5,261.833 174.5,263.5C 167.833,263.5 161.167,263.5 154.5,263.5C 154.5,251.5 154.5,239.5 154.5,227.5 Z"/></g>
<g><path style="opacity:0.816" fill="#fefffe" d="M 553.5,227.5 C 559.176,227.334 564.843,227.501 570.5,228C 579.361,230.371 584.027,236.204 584.5,245.5C 583.954,255.209 578.954,261.042 569.5,263C 564.177,263.499 558.844,263.666 553.5,263.5C 553.5,251.5 553.5,239.5 553.5,227.5 Z M 559.5,232.5 C 575.343,231.502 580.843,238.502 576,253.5C 571.471,257.989 565.971,259.655 559.5,258.5C 559.5,249.833 559.5,241.167 559.5,232.5 Z"/></g>
<g><path style="opacity:0.812" fill="#fefffe" d="M 776.5,227.5 C 784.833,227.5 793.167,227.5 801.5,227.5C 801.5,229.167 801.5,230.833 801.5,232.5C 798.5,232.5 795.5,232.5 792.5,232.5C 792.5,242.833 792.5,253.167 792.5,263.5C 790.5,263.5 788.5,263.5 786.5,263.5C 786.5,253.167 786.5,242.833 786.5,232.5C 783.167,232.5 779.833,232.5 776.5,232.5C 776.5,230.833 776.5,229.167 776.5,227.5 Z"/></g>
<g><path style="opacity:0.853" fill="#fefffe" d="M 675.5,228.5 C 677.167,228.5 678.833,228.5 680.5,228.5C 680.5,230.5 680.5,232.5 680.5,234.5C 683.167,234.5 685.833,234.5 688.5,234.5C 688.5,236.167 688.5,237.833 688.5,239.5C 685.833,239.5 683.167,239.5 680.5,239.5C 680.334,244.844 680.501,250.177 681,255.5C 681.374,256.416 681.874,257.25 682.5,258C 684.473,258.495 686.473,258.662 688.5,258.5C 688.5,260.167 688.5,261.833 688.5,263.5C 684.454,263.85 680.62,263.183 677,261.5C 675.571,254.281 675.071,246.947 675.5,239.5C 674.167,239.5 672.833,239.5 671.5,239.5C 671.5,237.833 671.5,236.167 671.5,234.5C 672.833,234.5 674.167,234.5 675.5,234.5C 675.5,232.5 675.5,230.5 675.5,228.5 Z"/></g>
<g><path style="opacity:0.786" fill="#fefffe" d="M 1137.5,228.5 C 1139.5,228.5 1141.5,228.5 1143.5,228.5C 1143.5,230.5 1143.5,232.5 1143.5,234.5C 1145.83,234.5 1148.17,234.5 1150.5,234.5C 1150.5,236.167 1150.5,237.833 1150.5,239.5C 1148.17,239.5 1145.83,239.5 1143.5,239.5C 1143.33,245.509 1143.5,251.509 1144,257.5C 1146.04,258.423 1148.21,258.756 1150.5,258.5C 1150.5,260.167 1150.5,261.833 1150.5,263.5C 1146.45,263.85 1142.62,263.183 1139,261.5C 1137.57,254.281 1137.07,246.947 1137.5,239.5C 1136.17,239.5 1134.83,239.5 1133.5,239.5C 1133.5,237.833 1133.5,236.167 1133.5,234.5C 1134.83,234.5 1136.17,234.5 1137.5,234.5C 1137.5,232.5 1137.5,230.5 1137.5,228.5 Z"/></g>
<g><path style="opacity:0.82" fill="#fefffe" d="M 186.5,234.5 C 189.144,234.16 191.477,234.827 193.5,236.5C 199.628,233.475 205.295,234.141 210.5,238.5C 216.119,233.882 222.119,233.382 228.5,237C 229.46,238.419 230.293,239.919 231,241.5C 231.5,248.826 231.666,256.159 231.5,263.5C 229.833,263.5 228.167,263.5 226.5,263.5C 226.666,257.158 226.5,250.825 226,244.5C 223.447,239.374 219.614,238.207 214.5,241C 213.874,241.75 213.374,242.584 213,243.5C 212.5,250.158 212.334,256.825 212.5,263.5C 210.5,263.5 208.5,263.5 206.5,263.5C 206.666,256.825 206.5,250.158 206,243.5C 201.155,237.921 196.822,238.254 193,244.5C 192.5,250.825 192.334,257.158 192.5,263.5C 190.5,263.5 188.5,263.5 186.5,263.5C 186.5,253.833 186.5,244.167 186.5,234.5 Z"/></g>
<g><path style="opacity:0.873" fill="#fefffe" d="M 245.5,234.5 C 247.167,234.5 248.833,234.5 250.5,234.5C 250.343,235.873 250.51,237.207 251,238.5C 258.568,232.737 265.568,233.403 272,240.5C 277.023,256.111 271.523,263.611 255.5,263C 253.919,262.293 252.419,261.46 251,260.5C 250.501,265.823 250.334,271.156 250.5,276.5C 248.833,276.5 247.167,276.5 245.5,276.5C 245.5,262.5 245.5,248.5 245.5,234.5 Z M 256.5,239.5 C 262.862,238.594 266.695,241.26 268,247.5C 267.908,256.925 263.408,260.091 254.5,257C 248.844,250.445 249.511,244.612 256.5,239.5 Z"/></g>
<g><path style="opacity:0.828" fill="#fefffe" d="M 293.5,234.5 C 310.615,234.379 316.115,242.379 310,258.5C 302.891,264.54 295.391,265.04 287.5,260C 281.115,249.379 283.115,240.879 293.5,234.5 Z M 295.5,239.5 C 305.019,239.514 308.519,244.181 306,253.5C 303.459,258.069 299.625,259.569 294.5,258C 287.733,251.438 288.067,245.271 295.5,239.5 Z"/></g>
<g><path style="opacity:0.807" fill="#fefffe" d="M 321.5,234.5 C 323.467,234.261 325.301,234.594 327,235.5C 328.534,241.932 330.367,248.266 332.5,254.5C 335.104,248.02 337.104,241.353 338.5,234.5C 340.604,234.201 342.604,234.534 344.5,235.5C 346.346,241.886 348.346,248.219 350.5,254.5C 352.651,248.235 354.651,241.902 356.5,235.5C 358.045,234.548 359.712,234.215 361.5,234.5C 359.517,243.62 357.017,252.62 354,261.5C 351.667,264.167 349.333,264.167 347,261.5C 345.465,255.729 343.632,250.063 341.5,244.5C 339.301,250.432 337.301,256.432 335.5,262.5C 333.5,263.833 331.5,263.833 329.5,262.5C 326.218,253.323 323.551,243.99 321.5,234.5 Z"/></g>
<g><path style="opacity:0.817" fill="#fefffe" d="M 379.5,234.5 C 392.614,232.791 398.614,238.291 397.5,251C 390.508,251.5 383.508,251.666 376.5,251.5C 377.941,258.051 381.941,260.217 388.5,258C 390.473,254.506 393.473,253.006 397.5,253.5C 396.839,258.33 394.172,261.497 389.5,263C 374.868,264.699 368.701,258.199 371,243.5C 372.688,239.315 375.521,236.315 379.5,234.5 Z M 381.5,239.5 C 386.791,238.643 390.457,240.643 392.5,245.5C 387.167,246.833 381.833,246.833 376.5,245.5C 377.497,242.845 379.164,240.845 381.5,239.5 Z"/></g>
<g><path style="opacity:0.775" fill="#fefffe" d="M 409.5,234.5 C 411.5,234.5 413.5,234.5 415.5,234.5C 415.351,235.552 415.517,236.552 416,237.5C 418.305,235.07 421.138,234.07 424.5,234.5C 424.5,236.5 424.5,238.5 424.5,240.5C 420.51,239.616 417.677,240.949 416,244.5C 415.5,250.825 415.334,257.158 415.5,263.5C 413.5,263.5 411.5,263.5 409.5,263.5C 409.5,253.833 409.5,244.167 409.5,234.5 Z"/></g>
<g><path style="opacity:0.91" fill="#fefffe" d="M 435.5,234.5 C 437.167,234.5 438.833,234.5 440.5,234.5C 440.5,244.167 440.5,253.833 440.5,263.5C 438.833,263.5 437.167,263.5 435.5,263.5C 435.5,253.833 435.5,244.167 435.5,234.5 Z"/></g>
<g><path style="opacity:0.879" fill="#fefffe" d="M 454.5,234.5 C 456.167,234.5 457.833,234.5 459.5,234.5C 459.351,235.552 459.517,236.552 460,237.5C 466.193,233.334 472.193,233.667 478,238.5C 479.438,246.723 479.938,255.057 479.5,263.5C 477.833,263.5 476.167,263.5 474.5,263.5C 474.666,257.158 474.5,250.825 474,244.5C 470.549,238.647 466.215,237.981 461,242.5C 459.661,249.426 459.161,256.426 459.5,263.5C 457.833,263.5 456.167,263.5 454.5,263.5C 454.5,253.833 454.5,244.167 454.5,234.5 Z"/></g>
<g><path style="opacity:0.821" fill="#fefffe" d="M 500.5,234.5 C 505.408,233.874 509.908,234.874 514,237.5C 514.483,236.552 514.649,235.552 514.5,234.5C 516.5,234.5 518.5,234.5 520.5,234.5C 520.667,245.172 520.5,255.839 520,266.5C 518.173,273.499 513.673,276.832 506.5,276.5C 499.521,277.015 494.854,274.015 492.5,267.5C 496.092,265.7 498.759,266.534 500.5,270C 510.028,273.794 514.528,270.627 514,260.5C 506.731,265.04 500.064,264.373 494,258.5C 488.973,248.331 491.14,240.331 500.5,234.5 Z M 502.5,239.5 C 511.478,239.31 515.311,243.643 514,252.5C 511.89,257.945 508.056,259.778 502.5,258C 500.333,257.167 498.833,255.667 498,253.5C 497.333,250.5 497.333,247.5 498,244.5C 499.193,242.503 500.693,240.836 502.5,239.5 Z"/></g>
<g><path style="opacity:0.758" fill="#fefffe" d="M 595.5,234.5 C 597.5,234.5 599.5,234.5 601.5,234.5C 601.5,244.167 601.5,253.833 601.5,263.5C 599.5,263.5 597.5,263.5 595.5,263.5C 595.5,253.833 595.5,244.167 595.5,234.5 Z"/></g>
<g><path style="opacity:0.858" fill="#fefffe" d="M 622.5,234.5 C 627.715,233.702 632.215,235.036 636,238.5C 636.49,237.207 636.657,235.873 636.5,234.5C 638.167,234.5 639.833,234.5 641.5,234.5C 641.96,246.934 641.46,259.267 640,271.5C 635.117,276.204 629.283,277.704 622.5,276C 617.828,274.497 615.161,271.33 614.5,266.5C 617.942,266.032 620.609,267.198 622.5,270C 632.119,273.55 636.452,270.384 635.5,260.5C 626.672,265.771 619.506,264.105 614,255.5C 611.328,245.97 614.161,238.97 622.5,234.5 Z M 624.5,239.5 C 634.388,239.929 637.888,244.929 635,254.5C 628.333,260.5 623,259.5 619,251.5C 618.438,246.335 620.271,242.335 624.5,239.5 Z"/></g>
<g><path style="opacity:0.91" fill="#fefffe" d="M 655.5,234.5 C 657.167,234.5 658.833,234.5 660.5,234.5C 660.5,244.167 660.5,253.833 660.5,263.5C 658.833,263.5 657.167,263.5 655.5,263.5C 655.5,253.833 655.5,244.167 655.5,234.5 Z"/></g>
<g><path style="opacity:0.818" fill="#fefffe" d="M 706.5,234.5 C 711.408,233.874 715.908,234.874 720,237.5C 720.483,236.552 720.649,235.552 720.5,234.5C 722.5,234.5 724.5,234.5 726.5,234.5C 726.5,244.167 726.5,253.833 726.5,263.5C 724.5,263.5 722.5,263.5 720.5,263.5C 720.649,262.448 720.483,261.448 720,260.5C 714.354,264.328 708.521,264.495 702.5,261C 697.534,255.252 696.367,248.752 699,241.5C 700.742,238.254 703.242,235.921 706.5,234.5 Z M 709.5,239.5 C 718.508,240.01 722.008,244.677 720,253.5C 717.459,258.069 713.625,259.569 708.5,258C 701.612,251.397 701.946,245.23 709.5,239.5 Z"/></g>
<g><path style="opacity:0.775" fill="#fefffe" d="M 812.5,234.5 C 814.5,234.5 816.5,234.5 818.5,234.5C 818.351,235.552 818.517,236.552 819,237.5C 821.305,235.07 824.138,234.07 827.5,234.5C 827.5,236.5 827.5,238.5 827.5,240.5C 823.51,239.616 820.677,240.949 819,244.5C 818.5,250.825 818.334,257.158 818.5,263.5C 816.5,263.5 814.5,263.5 812.5,263.5C 812.5,253.833 812.5,244.167 812.5,234.5 Z"/></g>
<g><path style="opacity:0.81" fill="#fefffe" d="M 845.5,234.5 C 850.408,233.874 854.908,234.874 859,237.5C 859.483,236.552 859.649,235.552 859.5,234.5C 861.5,234.5 863.5,234.5 865.5,234.5C 865.5,244.167 865.5,253.833 865.5,263.5C 863.5,263.5 861.5,263.5 859.5,263.5C 859.649,262.448 859.483,261.448 859,260.5C 853.87,263.929 848.37,264.429 842.5,262C 836.518,256.213 835.018,249.379 838,241.5C 839.742,238.254 842.242,235.921 845.5,234.5 Z M 848.5,239.5 C 856.962,239.797 860.462,244.13 859,252.5C 856.917,257.904 853.084,259.737 847.5,258C 842.845,255.103 841.345,250.937 843,245.5C 844.36,242.977 846.193,240.977 848.5,239.5 Z"/></g>
<g><path style="opacity:0.786" fill="#fefffe" d="M 878.5,234.5 C 881.144,234.16 883.477,234.827 885.5,236.5C 892.154,233.107 897.988,234.107 903,239.5C 904.401,247.415 904.901,255.415 904.5,263.5C 902.5,263.5 900.5,263.5 898.5,263.5C 898.666,256.825 898.5,250.158 898,243.5C 895.839,239.876 892.672,238.709 888.5,240C 886.951,241.214 885.785,242.714 885,244.5C 884.5,250.825 884.334,257.158 884.5,263.5C 882.5,263.5 880.5,263.5 878.5,263.5C 878.5,253.833 878.5,244.167 878.5,234.5 Z"/></g>
<g><path style="opacity:0.821" fill="#fefffe" d="M 922.5,234.5 C 927.121,233.993 931.454,234.826 935.5,237C 937.113,239.228 937.78,241.728 937.5,244.5C 934.143,244.894 931.81,243.561 930.5,240.5C 927.117,238.772 924.45,239.439 922.5,242.5C 922.608,243.442 922.941,244.275 923.5,245C 927.605,246.202 931.605,247.702 935.5,249.5C 939.954,255.184 938.954,259.684 932.5,263C 927.56,264.041 922.894,263.374 918.5,261C 916.984,259.103 916.317,256.936 916.5,254.5C 919.596,253.907 921.929,254.907 923.5,257.5C 927.196,259.28 930.196,258.613 932.5,255.5C 932.167,254.833 931.833,254.167 931.5,253.5C 927.506,252.001 923.506,250.501 919.5,249C 914.863,242.986 915.863,238.153 922.5,234.5 Z"/></g>
<g><path style="opacity:0.828" fill="#fefffe" d="M 981.5,234.5 C 998.615,234.379 1004.11,242.379 998,258.5C 990.891,264.54 983.391,265.04 975.5,260C 969.115,249.379 971.115,240.879 981.5,234.5 Z M 983.5,239.5 C 993.019,239.514 996.519,244.181 994,253.5C 991.459,258.069 987.625,259.569 982.5,258C 975.733,251.438 976.067,245.271 983.5,239.5 Z"/></g>
<g><path style="opacity:0.86" fill="#fefffe" d="M 1012.5,234.5 C 1014.17,234.5 1015.83,234.5 1017.5,234.5C 1017.35,235.552 1017.52,236.552 1018,237.5C 1020.3,235.07 1023.14,234.07 1026.5,234.5C 1026.5,236.5 1026.5,238.5 1026.5,240.5C 1023.35,239.959 1020.85,240.959 1019,243.5C 1017.62,250.076 1017.12,256.743 1017.5,263.5C 1015.83,263.5 1014.17,263.5 1012.5,263.5C 1012.5,253.833 1012.5,244.167 1012.5,234.5 Z"/></g>
<g><path style="opacity:0.828" fill="#fefffe" d="M 1037.5,234.5 C 1040.14,234.16 1042.48,234.827 1044.5,236.5C 1050.63,233.475 1056.29,234.141 1061.5,238.5C 1067.12,233.882 1073.12,233.382 1079.5,237C 1080.46,238.419 1081.29,239.919 1082,241.5C 1082.5,248.826 1082.67,256.159 1082.5,263.5C 1080.83,263.5 1079.17,263.5 1077.5,263.5C 1077.67,257.491 1077.5,251.491 1077,245.5C 1075.05,239.468 1071.21,237.968 1065.5,241C 1064.87,241.75 1064.37,242.584 1064,243.5C 1063.5,250.158 1063.33,256.825 1063.5,263.5C 1061.5,263.5 1059.5,263.5 1057.5,263.5C 1057.67,257.158 1057.5,250.825 1057,244.5C 1053.18,238.254 1048.84,237.921 1044,243.5C 1043.5,250.158 1043.33,256.825 1043.5,263.5C 1041.5,263.5 1039.5,263.5 1037.5,263.5C 1037.5,253.833 1037.5,244.167 1037.5,234.5 Z"/></g>
<g><path style="opacity:0.82" fill="#fefffe" d="M 1103.5,234.5 C 1108.28,233.839 1112.62,234.839 1116.5,237.5C 1117.39,236.675 1117.72,235.675 1117.5,234.5C 1119.5,234.5 1121.5,234.5 1123.5,234.5C 1123.5,244.167 1123.5,253.833 1123.5,263.5C 1121.5,263.5 1119.5,263.5 1117.5,263.5C 1117.65,262.448 1117.48,261.448 1117,260.5C 1109.73,265.04 1103.06,264.373 1097,258.5C 1091.97,248.331 1094.14,240.331 1103.5,234.5 Z M 1105.5,239.5 C 1114.48,239.31 1118.31,243.643 1117,252.5C 1114.89,257.945 1111.06,259.778 1105.5,258C 1097.74,251.896 1097.74,245.729 1105.5,239.5 Z"/></g>
<g><path style="opacity:0.758" fill="#fefffe" d="M 1161.5,234.5 C 1163.5,234.5 1165.5,234.5 1167.5,234.5C 1167.5,244.167 1167.5,253.833 1167.5,263.5C 1165.5,263.5 1163.5,263.5 1161.5,263.5C 1161.5,253.833 1161.5,244.167 1161.5,234.5 Z"/></g>
<g><path style="opacity:0.831" fill="#fefffe" d="M 1188.5,234.5 C 1204.52,233.685 1210.35,241.019 1206,256.5C 1201.53,263.085 1195.36,265.252 1187.5,263C 1181.76,260.214 1178.76,255.547 1178.5,249C 1178.94,242.077 1182.27,237.243 1188.5,234.5 Z M 1190.5,239.5 C 1199.55,239.92 1203.05,244.586 1201,253.5C 1198.46,258.069 1194.63,259.569 1189.5,258C 1185.08,254.975 1183.58,250.808 1185,245.5C 1186.36,242.977 1188.19,240.977 1190.5,239.5 Z"/></g>
<g><path style="opacity:0.881" fill="#fefffe" d="M 1219.5,234.5 C 1221.17,234.5 1222.83,234.5 1224.5,234.5C 1224.35,235.552 1224.52,236.552 1225,237.5C 1231.19,233.334 1237.19,233.667 1243,238.5C 1244.44,246.723 1244.94,255.057 1244.5,263.5C 1242.83,263.5 1241.17,263.5 1239.5,263.5C 1239.67,257.158 1239.5,250.825 1239,244.5C 1235.55,238.647 1231.22,237.981 1226,242.5C 1224.62,249.411 1224.12,256.411 1224.5,263.5C 1222.83,263.5 1221.17,263.5 1219.5,263.5C 1219.5,253.833 1219.5,244.167 1219.5,234.5 Z"/></g>
</svg>
